# xmcd
#
# Track frame offsets:
#	150
#	16575
#	28875
#	41925
#	58275
#	72450
#	86175
#	100050
#	116850
#	136200
#	151050
#	166275
#	185550
#	197850
#	212025
#	227775
#	239025
#	253725
#
# Disc length: 3560 seconds
#
# Revision: 1
# Processed by: cddbd v1.5.1PL0 Copyright (c) Steve Scherf et al.
# Submitted via: audiograbber 1.83.01
#
DISCID=0d0de612
DTITLE=Pioneer CD+G - PI201
DYEAR=1900
DGENRE=
TTITLE0=Brooks, Garth - Dance, The
TTITLE1=Brooks, Garth - Two Of A Kind, Working On A Full House
TTITLE2=Gatlin, Larry and The Gatlin Brothers - All The Gold In California
TTITLE3=Travis, Randy - Deeper Than The Holler
TTITLE4=Jackson, Alan - Don't Rock The Jukebox
TTITLE5=Judds, The - Girls Night Out
TTITLE6=Loveless, Patty - Hurt Me Bad In A Real Good Way
TTITLE7=Cash, Rosanne - Runaway Train
TTITLE8=Williams, Hank Jr. - Family Tradition
TTITLE9=Bellamy Brothers, The - If I Said You Have A Beautiful Body
TTITLE10=Diamond Rio - Meet In The Middle
TTITLE11=Judd, Wynonna - She Is His Only Need
TTITLE12=Yearwood, Trisha - That's What I Like About You
TTITLE13=Tucker, Tanya - Man That Turned My Mama On, The
TTITLE14=McEntire, Reba - Whoever's In New England
TTITLE15=Haggard, Merle - Movin' On
TTITLE16=Gayle, Crystal - Why Have You Left The One You Left Me For
TTITLE17=Harris, Emmylou - To Daddy
EXTD=
EXTT0=
EXTT1=
EXTT2=
EXTT3=
EXTT4=
EXTT5=
EXTT6=
EXTT7=
EXTT8=
EXTT9=
EXTT10=
EXTT11=
EXTT12=
EXTT13=
EXTT14=
EXTT15=
EXTT16=
EXTT17=
PLAYORDER=
